<?xml version="1.0" encoding="utf-8"?>
<!-- Generator: Adobe Illustrator 21.0.2, SVG Export Plug-In . SVG Version: 6.00 Build 0)  -->
<svg version="1.1" id="Layer_1" xmlns="http://www.w3.org/2000/svg" xmlns:xlink="http://www.w3.org/1999/xlink" x="0px" y="0px"
	 viewBox="0 0 955 280" style="enable-background:new 0 0 955 280;" xml:space="preserve">
<style type="text/css">
	.st0{font-family:'ArialMT';}
	.st1{font-size:46.93px;}
</style>
<title>Artboard 1</title>
<g id="Logo">
	<rect x="138" y="41.3" transform="matrix(0.7071 -0.7071 0.7071 0.7071 -56.2999 144.0799)" width="15.6" height="197.3"/>
	<polygon points="58.5,240 180.1,207.4 167.4,194.7 63.1,222.6 91.1,118.4 78.4,105.6 45.8,227.3 	"/>
	<polygon points="233.1,40 111.4,72.6 124.1,85.3 228.4,57.4 200.4,161.6 213.2,174.4 245.8,52.7 	"/>
	<path d="M316.7,162.7h74.1v14h-94.3v-12.8l71-102.8h-69.8v-14H388v12.5L316.7,162.7z"/>
	<path d="M404.2,127.6c-0.1-8.8,1.8-17.5,5.6-25.4c3.4-7.2,8.8-13.2,15.5-17.4c6.8-4.2,14.7-6.3,22.6-6.1c13.1,0,23.7,4.5,31.8,13.6
		s12.1,21.1,12.1,36.2v1.2c0.1,8.7-1.7,17.3-5.4,25.2c-3.3,7.2-8.7,13.2-15.4,17.4c-6.9,4.2-14.9,6.4-23,6.2
		c-13.1,0-23.6-4.5-31.7-13.6s-12.1-21.1-12.1-36L404.2,127.6z M420.7,129.6c0,10.7,2.5,19.2,7.4,25.7c4.6,6.3,12.1,9.9,19.9,9.7
		c8.4,0,15-3.3,19.9-9.8s7.4-15.7,7.4-27.5c0-10.6-2.5-19.1-7.5-25.7c-4.6-6.4-12.1-10.1-20-9.8c-7.7-0.2-15.1,3.4-19.7,9.7
		C423.2,108.3,420.7,117.6,420.7,129.6L420.7,129.6z"/>
	<path d="M528,80.4l0.4,10.7c7-8.3,16.6-12.5,28.6-12.5c13.5,0,22.6,5.2,27.5,15.5c3.2-4.7,7.5-8.5,12.5-11.2
		c5.6-3,11.9-4.4,18.2-4.3c21.1,0,31.9,11.2,32.2,33.5v64.5h-16.5v-63.5c0-6.9-1.6-12-4.7-15.4c-3.1-3.4-8.4-5.1-15.8-5.1
		c-6.1,0-11.2,1.8-15.2,5.5s-6.4,8.6-7,14.7v63.9h-16.6v-63.1c0-14-6.8-21-20.5-21c-10.8,0-18.2,4.6-22.2,13.8v70.3h-16.5V80.4H528z
		"/>
	<path d="M753.7,129.6c0,14.7-3.4,26.5-10.1,35.5s-15.8,13.4-27.2,13.4c-12.2,0-21.6-4.3-28.2-12.9l-0.8,11.1h-15.1V40h16.5v51
		c6.7-8.2,15.8-12.4,27.5-12.4c11.7,0,20.8,4.4,27.5,13.3c6.7,8.8,10,20.9,10,36.3L753.7,129.6z M737.2,127.7
		c0-11.2-2.2-19.9-6.5-26c-4.3-6.1-10.6-9.2-18.7-9.2c-10.9,0-18.7,5-23.4,15.1v41.6c5,10.1,12.9,15.1,23.6,15.1
		c7.9,0,14-3.1,18.4-9.2S737.2,140,737.2,127.7z"/>
	<path d="M821,95.2c-2.7-0.4-5.4-0.6-8.1-0.6c-10.8,0-18.1,4.6-22,13.8v68.3h-16.5V80.4h16l0.3,11.1c5.4-8.6,13.1-12.9,23-12.9
		c2.5-0.1,5,0.3,7.3,1.3V95.2z"/>
	<path d="M892,176.7c-0.9-1.9-1.7-5.3-2.3-10.1c-7.7,7.9-16.8,11.9-27.4,11.9c-9.5,0-17.3-2.7-23.4-8.1c-6-5.1-9.3-12.6-9.2-20.4
		c0-10,3.8-17.8,11.4-23.4c7.6-5.6,18.3-8.3,32.2-8.3h16v-7.6c0-5.8-1.7-10.3-5.2-13.8c-3.4-3.4-8.5-5.1-15.2-5.1
		c-5.9,0-10.8,1.5-14.8,4.4c-4,3-6,6.6-6,10.8h-16.5c0.1-5.1,1.9-10,5.1-13.9c3.7-4.7,8.4-8.3,13.9-10.6c6.1-2.7,12.6-4,19.3-3.9
		c11.1,0,19.8,2.8,26.1,8.3c6.3,5.5,9.5,13.2,9.8,22.9v44.3c0,8.8,1.1,15.9,3.4,21.1v1.4H892z M864.7,164.1c5.2,0,10.2-1.4,14.7-4
		c4.3-2.4,7.8-6,10-10.4V130h-12.9c-20.2,0-30.3,5.9-30.3,17.7c0,5.2,1.7,9.2,5.2,12.1S859.3,164.2,864.7,164.1L864.7,164.1z"/>
	<text transform="matrix(1 0 0 1 436.79 227.28)" class="st0 st1">Online Web</text>
	<text transform="matrix(1 0 0 1 672.94 227.28)" class="st0 st1"> </text>
	<text transform="matrix(1 0 0 1 683.64 227.28)" class="st0 st1">Text Edi</text>
	<text transform="matrix(1 0 0 1 851.25 227.28)" class="st0 st1">t</text>
	<text transform="matrix(1 0 0 1 866.13 227.28)" class="st0 st1">or</text>
</g>
</svg>
