<svg id="Layer_1" data-name="Layer 1" xmlns="http://www.w3.org/2000/svg" viewBox="0 0 955 240"><defs><style>.cls-1{fill:#fff;}</style></defs><title>Artboard 1</title><rect class="cls-1" x="112.21" y="21.33" width="15.58" height="197.34" transform="translate(-49.71 120) rotate(-45)"/><polygon class="cls-1" points="32.72 220 154.36 187.41 141.64 174.69 37.38 202.63 65.31 98.36 52.59 85.64 20 207.28 32.72 220"/><polygon class="cls-1" points="207.28 20 85.64 52.59 98.36 65.31 202.62 37.38 174.69 141.64 187.41 154.36 220 32.72 207.28 20"/><path class="cls-1" d="M292.64,177.94h80.3v15.14H270.76V179.19L347.68,67.85H272V52.71h97.85V66.22Z"/><path class="cls-1" d="M387.4,140a61.6,61.6,0,0,1,6-27.57A44.94,44.94,0,0,1,410.2,93.49a45.66,45.66,0,0,1,24.53-6.65q21.3,0,34.46,14.75t13.16,39.24v1.25a62.16,62.16,0,0,1-5.83,27.33,44.28,44.28,0,0,1-16.68,18.84A46.17,46.17,0,0,1,434.93,195q-21.21,0-34.37-14.75t-13.16-39Zm17.93,2.12q0,17.35,8,27.86t21.55,10.51q13.59,0,21.59-10.65t8-29.84q0-17.16-8.15-27.81a25.9,25.9,0,0,0-21.64-10.65A25.61,25.61,0,0,0,413.43,112Q405.33,122.51,405.33,142.08Z"/><path class="cls-1" d="M521.5,88.77l.48,11.57q11.47-13.5,30.95-13.5,21.88,0,29.79,16.77a39.5,39.5,0,0,1,13.54-12.15q8.34-4.63,19.71-4.63,34.32,0,34.9,36.34v69.89H633V124.24q0-11.18-5.11-16.73T610.76,102q-9.93,0-16.48,5.93t-7.61,16v69.22H568.73V124.72q0-22.75-22.27-22.75-17.55,0-24,14.94v76.16H504.63V88.77Z"/><path class="cls-1" d="M766.07,142.08q0,23.91-11,38.41T725.58,195q-19.76,0-30.56-14l-.87,12.05H677.76V45H695.6v55.24q10.8-13.4,29.79-13.4t29.84,14.36q10.84,14.37,10.85,39.33Zm-17.84-2q0-18.22-7-28.15T720.95,102q-17.64,0-25.35,16.39v45.12q8.19,16.39,25.55,16.39,12.82,0,20-9.93T748.23,140.05Z"/><path class="cls-1" d="M838.94,104.77a53.64,53.64,0,0,0-8.77-.67q-17.55,0-23.81,14.94v74H788.53V88.77h17.35l.29,12.05q8.77-14,24.87-14,5.21,0,7.91,1.35Z"/><path class="cls-1" d="M915.87,193.07q-1.54-3.08-2.51-11Q900.93,195,883.67,195q-15.43,0-25.31-8.72a28.23,28.23,0,0,1-9.88-22.12q0-16.29,12.39-25.31t34.85-9h17.35v-8.2q0-9.35-5.59-14.89T891,101.2q-9.54,0-16,4.82t-6.46,11.66H850.61q0-7.81,5.54-15.09a37.85,37.85,0,0,1,15-11.52,50.58,50.58,0,0,1,20.87-4.24q18,0,28.25,9t10.6,24.82v48q0,14.37,3.66,22.85v1.54Zm-29.59-13.59a31.34,31.34,0,0,0,15.91-4.34,26.25,26.25,0,0,0,10.89-11.28v-21.4h-14q-32.78,0-32.78,19.18,0,8.39,5.59,13.11T886.28,179.48Z"/></svg>