<svg id="Layer_1" data-name="Layer 1" xmlns="http://www.w3.org/2000/svg" viewBox="0 0 955 280"><defs><style>.cls-1,.cls-2{fill:#fff;}.cls-2{font-size:46.93px;font-family:Roboto-Regular, Roboto;}.cls-3{letter-spacing:-0.02em;}.cls-4{letter-spacing:-0.01em;}</style></defs><title>Artboard 1</title><g id="Logo"><rect class="cls-1" x="137.98" y="41.33" width="15.58" height="197.34" transform="translate(-56.3 144.08) rotate(-45)"/><polygon class="cls-1" points="58.49 240 180.13 207.41 167.41 194.69 63.14 222.62 91.08 118.36 78.36 105.64 45.77 227.28 58.49 240"/><polygon class="cls-1" points="233.05 40 111.41 72.59 124.13 85.31 228.39 57.38 200.45 161.64 213.18 174.36 245.77 52.72 233.05 40"/><path class="cls-1" d="M316.72,162.7h74.12v14H296.52V163.86l71-102.77H297.68v-14H388V59.58Z"/><path class="cls-1" d="M404.19,127.64a56.86,56.86,0,0,1,5.56-25.45,41.48,41.48,0,0,1,15.48-17.44,42.14,42.14,0,0,1,22.65-6.14q19.66,0,31.81,13.61t12.15,36.22v1.16a57.37,57.37,0,0,1-5.38,25.23,40.87,40.87,0,0,1-15.39,17.39,42.62,42.62,0,0,1-23,6.23q-19.58,0-31.72-13.61t-12.15-36Zm16.55,2q0,16,7.43,25.71a23.77,23.77,0,0,0,19.89,9.7q12.54,0,19.93-9.83t7.39-27.54q0-15.84-7.52-25.67a23.91,23.91,0,0,0-20-9.83,23.64,23.64,0,0,0-19.66,9.7Q420.74,111.54,420.74,129.6Z"/><path class="cls-1" d="M528,80.4l.44,10.68Q539,78.62,557,78.62q20.2,0,27.5,15.48A36.46,36.46,0,0,1,597,82.89a36.93,36.93,0,0,1,18.2-4.27q31.68,0,32.21,33.55v64.51H630.91V113.14q0-10.32-4.72-15.44t-15.84-5.12q-9.17,0-15.22,5.47t-7,14.73v63.89H571.56V113.58q0-21-20.55-21-16.2,0-22.16,13.79v70.29H512.39V80.4Z"/><path class="cls-1" d="M753.7,129.6q0,22.07-10.14,35.46t-27.23,13.39q-18.24,0-28.21-12.9l-.8,11.12H672.19V40h16.46V91q10-12.37,27.49-12.37t27.54,13.26q10,13.26,10,36.3Zm-16.46-1.87q0-16.82-6.5-26t-18.69-9.17q-16.28,0-23.4,15.13v41.64q7.56,15.13,23.58,15.13,11.83,0,18.42-9.17T737.24,127.73Z"/><path class="cls-1" d="M821,95.17a49.51,49.51,0,0,0-8.1-.62q-16.2,0-22,13.79v68.34H774.43V80.4h16l.27,11.12q8.09-12.9,23-12.9a16.85,16.85,0,0,1,7.3,1.25Z"/><path class="cls-1" d="M892,176.67q-1.42-2.85-2.31-10.14-11.48,11.92-27.41,11.92-14.24,0-23.36-8.05A26.05,26.05,0,0,1,829.77,150q0-15,11.43-23.36t32.17-8.32h16v-7.56q0-8.63-5.16-13.75T869,91.87q-8.81,0-14.77,4.45t-6,10.77H831.73a22.71,22.71,0,0,1,5.12-13.93,34.93,34.93,0,0,1,13.88-10.63A46.69,46.69,0,0,1,870,78.62q16.64,0,26.07,8.32t9.79,22.91v44.31q0,13.26,3.38,21.09v1.42Zm-27.32-12.55a28.92,28.92,0,0,0,14.68-4,24.23,24.23,0,0,0,10.05-10.41V130h-12.9q-30.25,0-30.25,17.71,0,7.74,5.16,12.1T864.65,164.13Z"/><text class="cls-2" transform="translate(436.79 227.28)">Online Web<tspan class="cls-3" x="236.15" y="0"> </tspan><tspan x="246.85" y="0">Text Edi</tspan><tspan class="cls-4" x="414.46" y="0">t</tspan><tspan x="429.34" y="0">or</tspan></text></g><g id="Lines"><rect class="cls-1" x="20.5" width="914" height="16"/><rect class="cls-1" x="20.5" y="264" width="914" height="16"/></g></svg>